<svg width="196" height="190" viewBox="0 0 196 190" fill="none" xmlns="http://www.w3.org/2000/svg">
<g opacity="0.1">
<path fill-rule="evenodd" clip-rule="evenodd" d="M149.226 14.63C151.476 10.5281 151.686 2.91784 146.322 0.569998C142.032 -1.31907 136.119 1.70344 134.968 6.45309C134.706 7.4516 136.172 9.15175 135.936 10.1772C135.517 10.1772 135.099 10.1233 134.68 10.0963C129.683 9.17874 125.079 8.31518 119.48 9.96137C104.803 14.2253 95.8823 29.4997 83.6386 36.3273C82.2782 35.4638 80.159 36.6242 78.3539 36.948C76.758 31.7396 72.6244 27.9615 69.0664 25.8025C67.4182 29.6886 67.863 37.7306 71.2378 40.5372C64.2003 45.7187 56.9012 45.6107 49.1049 46.3394C43.2447 46.8791 36.7304 47.3919 31.3672 49.4159C22.7861 52.6543 19.4636 58.9961 14.0219 65.5539C9.18197 57.3499 -1.28277 64.3935 0.129973 71.1671C1.22877 76.4025 5.96407 78.2376 9.39127 79.8298C8.31863 95.8599 8.2663 109.893 7.97852 125.896C7.84772 132.859 6.74892 144.301 13.7603 148.295C28.6725 156.796 64.4358 140.496 58.7587 120.634C58.1046 119.608 57.2151 119.203 56.7704 117.611C42.3029 103.821 27.5737 90.7864 13.2371 76.6724C17.7107 73.407 19.8298 68.7383 22.7861 64.6903C24.4082 62.9092 26.161 61.263 27.9662 59.6168C29.2481 58.7802 30.687 58.0786 32.4137 57.5388C39.0849 55.5148 46.5149 57.0801 52.7676 56.4864C58.2877 55.9466 64.0695 55.3259 70.139 52.4923C71.421 54.8402 74.2726 53.0051 76.3394 53.248C84.5019 70.5734 92.3766 93.0533 101.586 112.187C106.112 121.578 109.591 132.4 115.373 136.286C114.483 139.74 111.422 142.304 109.565 145.38C111.108 149.105 113.071 151.317 115.478 152.694C117.283 153.719 119.637 153.045 121.207 154.745C120.762 157.201 115.634 157.821 113.175 159.467C112.495 160.52 114.248 162.544 113.96 163.758C112.181 164.46 110.847 165.324 109.879 166.349C109.565 167.375 110.821 169.021 110.428 170.046C108.754 170.775 107.053 171.504 105.928 172.448C105.274 173.77 106.635 175.875 106.687 177.468C105.274 178.142 103.574 178.709 102.763 179.627C102.894 181.435 104.359 184.619 105.615 185.483C123.405 177.522 143.994 168.562 160.633 159.333C161.392 157.47 159.063 154.232 157.86 152.019C156.316 152.073 154.302 153.395 152.523 154.097C152.81 152.694 151.398 151.398 150.534 151.075C148.755 151.183 148.049 152.343 146.191 153.045C145.694 151.803 145.197 150.562 144.491 149.887C143.523 149.887 142.346 150.454 141.168 151.048C139.677 144.544 132.927 152.1 129.212 151.479C130.468 146.622 133.241 142.331 129.657 135.53C125.759 136.286 122.463 135.476 119.533 133.722C119.349 127.272 116.367 121.443 113.044 114.508C103.051 93.728 94.7835 68.9272 85.1036 49.3079C86.8826 49.038 87.6152 47.2839 88.1122 45.7996C94.3649 41.6167 99.388 36.6781 104.699 31.0919C109.434 26.0994 113.829 19.7845 119.899 16.681C122.489 15.7365 125.184 15.1968 127.904 14.8729C129.029 14.8999 130.154 15.0349 131.253 15.2238C131.462 15.3047 131.698 15.3587 131.933 15.3857H132.169C134.89 15.9254 137.558 16.6271 140.436 16.6001C141.979 16.6001 143.209 15.4936 144.857 16.3842C146.165 31.6586 145.145 49.4698 145.302 65.1761C145.38 71.7608 143.418 82.6364 150.037 85.9018C154.668 86.5765 159.56 89.8689 165.525 88.8704C180.908 86.2796 199.483 71.0322 195.376 57.3769C180.516 41.8596 164.662 29.0139 149.357 14.711L149.226 14.63ZM10.804 79.8838C16.8474 93.62 23.1001 108.382 29.3789 123.251C22.3675 127.488 14.8591 131.509 10.5947 136.826C8.60641 117.017 10.6209 98.8015 10.804 79.8838ZM52.4013 117.071C46.201 116.91 39.2158 118.88 31.5503 122.631C25.1407 109.083 18.4171 93.2692 12.9754 79.2631C26.3703 91.1912 39.5035 103.794 52.4013 117.071ZM166.101 61.29C157.834 64.6903 151.921 69.0352 147.63 74.0007C147.029 56.0006 147.84 36.3813 146.976 17.4367C152.549 31.3618 160.083 46.8251 166.101 61.29ZM167.435 60.3185C161.339 45.7996 154.589 31.0649 149.148 16.816C163.066 29.2568 176.67 42.5343 190.693 54.7322C184.048 56.3784 175.44 55.191 167.435 60.3455V60.3185Z" fill="#4FC3F7"/>
<path fill-rule="evenodd" clip-rule="evenodd" d="M70.5938 30.0942C72.4512 30.58 72.6082 34.4661 72.3204 35.7344C70.2536 35.1677 71.1955 31.7134 70.5938 30.0942Z" fill="#0A2342"/>
<path fill-rule="evenodd" clip-rule="evenodd" d="M70.0162 45.7456C53.6389 55.083 41.3428 47.095 27.1108 55.6497C19.2623 60.3724 18.896 70.6543 11.2044 74.3515C8.69287 75.5659 7.12316 75.1341 4.95173 74.3515C3.48667 71.5179 2.85878 69.0621 3.17273 66.9301C5.76275 63.8267 12.0416 63.4489 12.5125 67.6858C12.8526 70.7623 6.54761 73.6228 5.23951 68.4954C5.57962 67.0921 8.22196 66.2825 8.98066 67.4969C9.53006 69.1431 6.99236 67.335 6.78306 68.8462C7.77721 70.9242 10.498 70.0876 11.0736 68.3335C8.95449 61.8567 1.05362 66.2285 4.53314 71.6798C5.97204 73.9197 10.2364 74.2435 12.9049 71.7877C15.338 69.5478 16.7507 65.5808 19.0006 62.5853C21.5645 59.158 25.2271 54.7861 30.2502 52.4383C43.4881 46.2853 56.9615 50.4683 70.0162 45.7456Z" fill="#0A2342"/>
<path fill-rule="evenodd" clip-rule="evenodd" d="M73.7344 33.333C74.2838 33.387 74.5715 34.1156 74.964 34.5744C74.6762 34.7093 74.3884 34.8443 74.1006 34.9792C73.4989 34.2506 74.1791 34.0077 73.7605 33.36L73.7344 33.333Z" fill="#0A2342"/>
<path fill-rule="evenodd" clip-rule="evenodd" d="M32.3906 55.0289C45.6285 49.1188 56.8258 56.5131 71.3717 47.2837C70.0898 51.0888 65.59 50.9539 62.5029 51.6825C52.169 54.1653 42.306 52.9239 32.3906 55.0289Z" fill="#0A2342"/>
<path fill-rule="evenodd" clip-rule="evenodd" d="M75.3486 37.9478C75.6625 38.8113 74.3806 39.0542 73.5695 39.486C72.837 38.4605 74.773 38.4875 75.3486 37.9478Z" fill="#0A2342"/>
<path fill-rule="evenodd" clip-rule="evenodd" d="M108.373 23.6162C103.977 29.0945 97.9079 34.5728 90.6088 39.5923C88.6205 40.9416 86.2136 44.153 83.9375 42.6418C95.3702 37.6223 100.367 30.0121 108.373 23.6432V23.6162Z" fill="#0A2342"/>
<path fill-rule="evenodd" clip-rule="evenodd" d="M71.4012 43.3181C71.8721 43.1022 72.3692 42.8863 72.8401 42.6704C73.4941 43.9658 74.5929 43.9658 75.1161 45.558C73.6511 45.3961 72.3168 44.8833 71.375 43.3181H71.4012Z" fill="#0A2342"/>
<path fill-rule="evenodd" clip-rule="evenodd" d="M74.3125 41.9951C76.1438 41.1585 77.9752 40.3219 79.8326 39.4854C80.4344 40.8077 79.9111 41.6713 80.2512 42.8857C78.8385 43.7762 77.6351 43.2905 76.7717 44.4779C76.0915 43.2905 75.0189 43.1825 74.3387 42.0221L74.3125 41.9951Z" fill="#0A2342"/>
<path fill-rule="evenodd" clip-rule="evenodd" d="M81.8143 45.7202C81.0294 46.3409 80.6108 45.9091 79.9568 46.206C78.4132 46.6647 76.4511 48.257 75.1953 48.0141C76.8435 47.2584 78.4917 46.5298 80.1137 45.7742C80.7416 45.2614 81.3434 44.4788 81.8143 45.7202Z" fill="#0A2342"/>
<path fill-rule="evenodd" clip-rule="evenodd" d="M73.7578 51.1973C73.8363 49.821 79.5657 48.2827 76.6618 49.8749C76.0339 50.1988 74.9089 50.6306 73.7578 51.1973Z" fill="#0A2342"/>
<path fill-rule="evenodd" clip-rule="evenodd" d="M78.5418 51.8726C78.8296 51.7376 79.1173 51.6027 79.4051 51.4678C89.8175 76.5924 103.082 104.389 112.892 128.812C111.166 128.946 110.616 126.599 110.067 125.465C107.869 121.012 105.907 115.777 103.788 110.811C95.7824 92.1367 87.9339 71.7617 78.9081 52.7901C78.7772 52.4933 78.6464 52.1964 78.5156 51.8995L78.5418 51.8726Z" fill="#0A2342"/>
<path fill-rule="evenodd" clip-rule="evenodd" d="M80.5585 50.9548C81.3434 50.604 82.1021 50.2532 82.8869 49.9023C93.09 74.5142 106.302 102.634 115.223 127.786C113.496 127.624 113.496 125.357 112.973 124.17C103.032 100.772 91.782 75.5397 80.6632 52.0073C80.4539 51.6025 80.2446 51.1707 80.5585 50.9818V50.9548Z" fill="#0A2342"/>
<path fill-rule="evenodd" clip-rule="evenodd" d="M32.0312 124.573C36.7665 122.171 41.2141 120.579 45.2953 119.958C44.432 121.145 42.0251 120.984 40.3769 122.198C43.0977 123.061 47.022 120.687 50.1091 120.633C53.8764 128.918 44.8767 132.102 36.7927 135.637C35.6416 132.615 33.601 128.432 32.0574 124.573H32.0312ZM35.8509 125.328C36.4003 125.571 37.2375 125.058 37.9962 124.708C37.813 123.331 35.4585 124.438 35.8509 125.328Z" fill="#0A2342"/>
<path fill-rule="evenodd" clip-rule="evenodd" d="M14.3436 142.275C6.12881 139.253 20.1515 131.373 24.6514 128.296C25.3839 127.946 25.0961 128.35 25.2008 128.755C20.1254 131.697 16.8813 135.367 14.082 139.199C14.082 140.197 13.8989 141.115 14.3698 142.275H14.3436Z" fill="#0A2342"/>
<path fill-rule="evenodd" clip-rule="evenodd" d="M27.3691 127.407C27.4737 126.543 29.3312 126.381 30.1422 125.788C31.4241 129.674 34.2235 132.804 34.7467 136.555C30.9271 136.906 26.2179 139.632 22.3721 140.037C21.1687 138.795 19.9914 137.419 19.0234 135.476C21.2472 132.48 26.061 130.51 28.0493 127.407C27.9185 127.11 27.6045 127.326 27.3429 127.38L27.3691 127.407Z" fill="#0A2342"/>
<path fill-rule="evenodd" clip-rule="evenodd" d="M184.712 58.5386C184.895 59.1053 183.796 59.1593 183.822 59.672C185.915 60.5086 189.081 58.4576 190.101 62.1818C186.438 66.5806 179.087 69.5221 173.279 73.0844C171.474 71.0874 170.95 67.5521 169.825 65.0154C170.846 64.4217 172.494 64.0978 172.886 63.2612C171.971 62.7215 170.323 64.1518 169.302 63.828C169.171 62.0468 171.474 61.3452 172.572 60.9134C176.209 59.5101 181.415 59.618 184.738 58.5925L184.712 58.5386ZM175.712 62.6405C177.072 63.0723 178.877 62.3167 180.578 61.8579C179.924 60.2117 176.078 60.8054 175.712 62.6405Z" fill="#0A2342"/>
<path fill-rule="evenodd" clip-rule="evenodd" d="M167.81 64.4477C160.484 67.713 155.226 71.815 149.81 75.863C148.816 76.3758 150.229 77.86 149.13 78.3188C148.816 77.2123 149.156 76.3488 149.261 75.4043C153.133 72.3008 157.606 68.0909 163.65 65.2843C164.801 64.7445 166.658 63.1253 167.81 64.4477Z" fill="#0A2342"/>
<path fill-rule="evenodd" clip-rule="evenodd" d="M168.467 65.9336C169.539 68.5243 170.9 71.196 171.371 73.5438C165.17 75.325 157.112 82.0716 154.758 73.5978C157.688 71.088 163.13 68.2005 168.467 65.9336Z" fill="#0A2342"/>
<path fill-rule="evenodd" clip-rule="evenodd" d="M51.3906 120.39C55.3411 119.661 56.0213 123.763 52.9865 125.733C52.0447 124.762 52.8557 122.387 51.3906 120.39Z" fill="#0A2342"/>
<path fill-rule="evenodd" clip-rule="evenodd" d="M153.027 74.4058C154.099 74.7566 154.727 78.3458 156.532 78.5347C155.564 80.019 153.314 79.4792 151.928 79.911C149.782 77.4822 151.117 75.8361 153.027 74.4058Z" fill="#0A2342"/>
<path fill-rule="evenodd" clip-rule="evenodd" d="M20.8058 140.415C18.8436 140.469 16.8292 140.765 15.4688 139.281C16.0181 138.256 17.3262 137.554 17.7187 136.475C19.1837 136.61 19.4977 139.875 20.8058 140.442V140.415Z" fill="#0A2342"/>
<path fill-rule="evenodd" clip-rule="evenodd" d="M54.8946 127.731C55.6533 127.839 54.0575 130.888 53.4296 131.617C46.9153 139.2 29.8316 143.518 20.5703 145.515C30.7473 141.818 47.8571 136.016 54.8946 127.731Z" fill="#0A2342"/>
<path fill-rule="evenodd" clip-rule="evenodd" d="M113.781 130.916C114.749 130.484 115.717 130.026 116.685 129.594C117.025 130.727 117.156 131.753 116.973 132.67C115.22 133.912 114.697 131.861 113.781 130.889V130.916Z" fill="#0A2342"/>
<path fill-rule="evenodd" clip-rule="evenodd" d="M119.273 138.067C120.476 138.31 121.523 138.93 122.779 138.957C122.438 140.145 120.45 140.658 118.985 141.413C118.854 140.199 119.561 139.335 119.273 138.067Z" fill="#0A2342"/>
<path fill-rule="evenodd" clip-rule="evenodd" d="M127.388 140.792C127.467 142.466 127.781 144.247 127.022 145.596C126.708 144.813 125.008 141.332 127.388 140.792Z" fill="#0A2342"/>
<path fill-rule="evenodd" clip-rule="evenodd" d="M114.023 147.62C115.096 146.891 115.802 147.161 116.77 146.729C117.529 148.538 118.916 148.727 119.727 150.4C117.477 150.4 115.567 149.563 114.023 147.62Z" fill="#0A2342"/>
<path fill-rule="evenodd" clip-rule="evenodd" d="M124.463 142.845C124.908 144.923 124.699 146.731 124.071 148.404C121.271 149.673 119.675 147.703 117.766 146.623C119.597 145.22 122.213 144.087 124.463 142.845Z" fill="#0A2342"/>
<path fill-rule="evenodd" clip-rule="evenodd" d="M126.164 152.453C126.477 153.316 125.196 153.559 124.385 153.964C123.887 152.992 125.3 152.129 126.164 152.453Z" fill="#0A2342"/>
<path fill-rule="evenodd" clip-rule="evenodd" d="M137.724 151.128C132.91 155.338 124.538 158.091 117.945 161.572C123.256 157.74 130.581 153.395 137.724 151.128Z" fill="#0A2342"/>
<path fill-rule="evenodd" clip-rule="evenodd" d="M141.993 153.826C142.543 155.553 140.057 155.661 139.194 156.174C132.104 160.303 120.698 164.972 112.797 168.21C118.082 165.43 124.491 162.084 130.561 158.684C134.197 156.66 138.069 154.204 141.993 153.826Z" fill="#0A2342"/>
<path fill-rule="evenodd" clip-rule="evenodd" d="M108.504 175.174C107.458 173.258 110.388 172.934 111.173 172.529C123.234 166.188 138.303 159.36 149.134 155.933C148.741 156.122 148.349 156.283 147.983 156.472C136.681 161.924 123.155 169.021 112.664 174.364C111.618 174.904 109.551 176.631 108.504 175.174Z" fill="#0A2342"/>
<path fill-rule="evenodd" clip-rule="evenodd" d="M155.752 156.824C155.935 156.743 156.144 156.662 156.327 156.554C157.845 159.523 152.482 160.359 150.729 161.25C137.674 167.889 119.858 174.959 107.64 181.247C107.117 179.493 109.681 179.331 110.439 178.899C123.808 171.397 142.514 164.164 155.752 156.824Z" fill="#0A2342"/>
<path fill-rule="evenodd" clip-rule="evenodd" d="M144.34 7.20835C145.203 8.20686 143.319 10.2579 141.462 11.0135C137.407 10.6087 136.753 4.88751 140.128 3.02543C145.255 0.218821 151.273 7.72109 146.511 12.2818C137.171 17.3283 130.526 10.3658 121.213 13.0914C109.571 16.4918 103.527 26.8546 94.5537 34.195C91.0219 37.0826 86.7575 38.6208 82.8594 41.6703C83.0948 38.7288 86.5482 37.0556 88.8243 35.3824C91.2835 33.5743 93.5596 31.7662 96.0449 29.5803C102.821 23.6162 108.917 17.0855 119.25 12.5517C123.227 10.8246 128.538 11.4723 132.488 11.8771C135.968 12.2279 139.657 13.6042 142.247 12.7946C145.151 11.877 147.322 9.12441 146.93 6.72259C145.7 -0.725726 136.753 5.2923 140.285 9.04345C141.488 10.3118 144.261 9.04344 144.34 7.18136V7.20835Z" fill="#0A2342"/>
<path fill-rule="evenodd" clip-rule="evenodd" d="M142.382 6.66972C140.97 6.39986 142.513 5.26641 143.455 5.10449C143.795 5.23943 143.978 5.83314 144.423 5.72519C144.345 6.39986 142.356 4.86161 142.382 6.64273V6.66972Z" fill="#0A2342"/>
<path fill-rule="evenodd" clip-rule="evenodd" d="M188.242 58.7C188.922 57.9984 192.166 57.8904 191.879 59.9144C190.728 59.3747 189.655 58.619 188.242 58.7Z" fill="#0A2342"/>
<path fill-rule="evenodd" clip-rule="evenodd" d="M151.406 81.9352C164.121 80.6669 181.362 73.7313 192.271 64.0161C193.03 65.0686 191.931 68.199 190.884 69.6563C189.969 70.9517 187.797 72.6518 185.992 74.379C183.245 77.0237 182.356 78.4539 179.085 79.3175C176.234 80.0731 173.382 82.2051 170.374 83.2846C165.167 85.1466 160.406 84.8768 156.403 84.6609C166.423 82.0702 183.088 76.295 189.812 68.0101C184.527 70.304 178.955 74.9727 172.467 77.6983C165.22 80.7478 157.214 83.4195 151.406 81.9352Z" fill="#0A2342"/>
<path fill-rule="evenodd" clip-rule="evenodd" d="M17.3828 146.974C26.3825 146.65 43.7016 141.846 52.6228 133.777C48.6462 143.223 26.0947 151.427 17.3828 146.974Z" fill="#0A2342"/>
<path fill-rule="evenodd" clip-rule="evenodd" d="M117.39 139.282C117.73 140.011 117.573 142.656 115.219 143.141C115.742 141.765 116.972 140.686 117.39 139.282Z" fill="#0A2342"/>
</g>
</svg>
