<svg width="158" height="143" viewBox="0 0 158 143" fill="none" xmlns="http://www.w3.org/2000/svg">
<g opacity="0.2">
<path fill-rule="evenodd" clip-rule="evenodd" d="M131.736 130.713C132.154 129.014 133.068 127.022 132.467 125.881C131.083 124.872 128.498 124.553 126.54 123.863C126.775 122.588 127.663 120.942 127.297 119.986C126.409 119.03 123.72 119.057 122.884 118.075C121.709 114.649 122.962 111.543 124.372 107.189C127.924 96.3293 132.807 80.3988 135.94 69.0085C137.089 64.84 137.35 59.6625 138.76 56.6092C139.935 54.1399 142.573 52.2548 143.643 50.1573C147.221 51.6176 151.372 52.8655 154.898 53.0779C155.498 51.83 157.3 50.9007 157.091 49.6263C149.78 41.0503 140.797 32.8727 131.736 24.0843C123.145 15.7473 114.241 6.5607 103.143 0.10883C102.804 -0.103578 102.282 0.0557324 101.916 0.0822833C80.8956 0.294691 59.9798 7.11828 39.9778 11.4726C37.2099 12.0833 32.3008 12.2692 31.5174 14.0746C29.4285 18.8803 38.6461 20.1813 43.1374 21.1903C42.7457 23.686 44.5736 26.819 44.2602 29.3679C43.8946 32.3416 42.1973 36.165 41.2051 39.1918C36.4788 53.7151 32.4575 71.398 28.2273 85.7621C26.7911 86.7976 25.7728 88.6296 24.5455 90.0633C22.8743 89.9306 21.6209 88.603 20.5242 88.8951C19.5058 89.5323 19.7669 92.4795 18.7225 93.0901C16.8685 92.6122 15.0929 92.3202 13.3956 92.1874C12.3511 93.1963 12.2989 96.0373 10.941 96.5152C8.27757 95.9045 5.17022 94.5239 2.84623 94.4973C2.58511 96.4621 0.966152 99.3827 0 102.489C44.0513 115.446 93.0117 129.73 137.716 142.183C138.969 140.059 139.387 136.474 140.562 134.191C138.656 132.412 133.355 131.801 131.632 130.686L131.736 130.713ZM58.5175 78.1685C56.4285 87.01 55.149 93.6477 50.266 97.8162C48.5426 97.3383 46.7147 96.8869 45.4875 96.1169C45.2264 94.1256 44.2863 92.5326 43.5552 90.8333C46.3753 81.5405 49.2737 71.7166 52.0155 61.8928C52.4594 60.6715 52.7989 59.3439 53.06 58.0695C55.384 49.5732 57.5252 41.13 59.3531 33.1116C61.442 31.6513 62.6171 28.5449 64.7322 27.1111C66.4295 27.1111 68.5707 27.9342 70.5291 28.4652C71.3124 37.8642 66.2728 50.4759 62.5126 63.9107C61.1548 68.7164 59.6403 73.5221 58.5436 78.1685H58.5175ZM111.839 94.4708C110.742 99.1968 110.141 104.958 108.313 108.224C107.478 109.711 104.841 110.667 104.553 112.817C102.177 112.154 99.6964 111.277 97.6075 111.118C96.1452 108.41 97.4769 105.463 98.5214 102.277C103.796 86.1072 108.627 65.3179 112.726 49.1218C114.711 47.4491 116.487 45.4578 118.106 43.1213C118.21 42.6965 118.288 42.2717 118.628 42.3248C120.717 42.6965 121.709 43.6789 123.694 44.1037C124.66 57.0605 115.886 76.841 111.812 94.4708H111.839ZM85.7786 86.9569C83.5852 94.8425 82.4363 102.25 78.0494 105.808C75.4904 105.091 73.2448 104.958 70.5291 103.949C68.4662 100.153 68.9362 97.5772 70.8424 91.7626C74.2892 81.1953 78.9894 65.7427 82.3318 53.8744C83.4285 49.998 84.0291 44.5285 85.4653 41.5548C86.6925 38.9528 89.4343 37.5722 90.7661 35.8464C92.2806 36.0588 94.5262 37.0677 96.7719 37.5722C96.2235 40.3335 97.3463 42.1389 98.0253 44.2099C93.2989 57.034 89.7477 72.7521 85.8047 86.9303L85.7786 86.9569Z" fill="#4FC3F7"/>
<path fill-rule="evenodd" clip-rule="evenodd" d="M101.751 6.32227C117.261 17.4471 128.829 30.8022 142.59 42.936C111.386 34.6786 79.4248 24.6159 49.4219 15.4558C65.6637 10.1987 83.8117 8.44634 101.777 6.32227H101.751ZM54.3832 15.323C58.3523 18.3764 63.9664 18.6684 68.8232 20.1022C79.8426 23.368 90.9142 27.802 102.665 30.8022C114.624 33.829 126.218 38.4223 138.047 40.3605C127.001 28.7312 115.851 17.1816 101.072 7.67637C84.83 8.97736 69.1105 11.2342 54.4093 15.2965L54.3832 15.323Z" fill="#0A2342" fill-opacity="0.5"/>
<path fill-rule="evenodd" clip-rule="evenodd" d="M134.346 38.051C109.67 31.8115 82.3043 22.8373 58.3594 15.5093C71.5722 13.0135 86.2211 10.0663 99.7211 9.19017C102.802 8.97776 106.85 13.9693 109.827 16.1996C118.94 23.0232 126.042 31.1212 134.346 38.051ZM109.592 21.4832C106.824 18.9078 103.298 14.0224 99.5122 13.2259C96.6138 12.6152 91.7308 14.4472 88.4668 15.0845C84.7588 15.8013 80.7375 15.8279 77.8391 17.6865C83.2182 20.7664 90.5035 22.2532 97.2666 24.5366C102.411 26.2624 107.163 27.8289 111.419 29.2361C113.508 29.9264 116.224 31.3602 118.235 30.2716C116.276 26.8731 112.829 24.5366 109.539 21.4832H109.592Z" fill="#0A2342" fill-opacity="0.5"/>
<path fill-rule="evenodd" clip-rule="evenodd" d="M112.753 26.7942C103.04 25.1215 94.2399 20.8203 84.5 18.3245C89.148 16.3863 94.9449 16.5721 99.4884 14.4746C103.849 18.6166 107.818 22.9975 112.753 26.7942Z" fill="#0A2342" fill-opacity="0.5"/>
<path fill-rule="evenodd" clip-rule="evenodd" d="M87.6582 34.6524C86.7442 36.2189 85.4125 34.6524 84.0547 34.2541C80.3206 33.1656 75.6727 31.9708 72.3825 30.5901C72.3825 30.3246 72.1736 30.2184 72.252 29.9263C72.3042 29.5812 72.4609 29.4219 72.6959 29.4219C76.691 31.7318 83.1146 32.6611 87.6321 34.679L87.6582 34.6524Z" fill="#0A2342" fill-opacity="0.5"/>
<path fill-rule="evenodd" clip-rule="evenodd" d="M115.811 42.4577C113.618 43.1215 109.727 41.4488 106.123 40.5991C103.564 39.9885 100.274 40.2805 98.9688 38.5282C102.389 38.0768 112.495 41.1567 115.811 42.4312V42.4577Z" fill="#0A2342" fill-opacity="0.5"/>
<path fill-rule="evenodd" clip-rule="evenodd" d="M45.7408 21.9619C50.8066 23.4222 55.8463 24.8825 60.912 26.3428C59.0842 27.6173 56.4207 25.8915 54.0706 25.3073C51.355 24.6436 48.4565 24.2453 45.9759 23.2895C46.1325 22.7053 45.2969 22.7053 45.7408 21.9619Z" fill="#0A2342" fill-opacity="0.5"/>
<path fill-rule="evenodd" clip-rule="evenodd" d="M125.539 45.2725C130.03 46.2548 137.316 47.7417 140.919 50.0251C136.689 50.0782 129.586 47.2372 125.591 46.2283C125.722 45.83 125.879 45.4052 125.539 45.2725Z" fill="#0A2342" fill-opacity="0.5"/>
<path fill-rule="evenodd" clip-rule="evenodd" d="M72.2188 32.4218C72.2188 32.1563 72.4015 32.1828 72.5843 32.2094C74.9605 33.0324 77.859 34.5193 80.653 35.4751C82.272 36.0061 84.9093 35.8999 85.2749 37.7585C82.4025 38.6081 76.71 35.2627 72.5843 34.4131C72.2971 33.8555 72.5843 32.9528 72.2188 32.4218Z" fill="#0A2342" fill-opacity="0.5"/>
<path fill-rule="evenodd" clip-rule="evenodd" d="M46.448 24.9863C50.0253 27.0307 55.3 27.0573 58.6685 28.8362C56.1356 30.8275 50.4692 27.0573 46.6046 26.6059C47.0747 25.7828 45.9779 25.8094 46.448 24.9863Z" fill="#0A2342" fill-opacity="0.5"/>
<path fill-rule="evenodd" clip-rule="evenodd" d="M113.198 45.1655C109.725 45.192 102.675 43.1742 99.75 41.2891C103.824 42.3776 110.064 42.8556 113.198 45.1655Z" fill="#0A2342" fill-opacity="0.5"/>
<path fill-rule="evenodd" clip-rule="evenodd" d="M125.67 48.1387C129.457 49.8379 134.731 50.661 138.387 52.4399C136.638 54.3781 132.721 51.9089 129.848 50.9265C128.151 50.3424 126.637 50.3159 125.644 49.3866C125.488 49.068 125.514 48.6431 125.67 48.1387Z" fill="#0A2342" fill-opacity="0.5"/>
<path fill-rule="evenodd" clip-rule="evenodd" d="M46.6083 28.8109C48.41 29.7136 46.4255 33.1121 45.6682 35.4486C40.6286 51.6712 36.0067 72.1419 31.5938 87.0636C34.44 68.7169 41.4381 48.0072 46.0338 28.625C46.2166 28.6781 46.4255 28.7312 46.6083 28.7843V28.8109Z" fill="#0A2342" fill-opacity="0.5"/>
<path fill-rule="evenodd" clip-rule="evenodd" d="M100.448 44.3166C100.735 44.3962 101.022 44.4759 101.309 44.5556C97.079 63.0615 91.1777 84.5147 85.1719 102.49C88.1226 84.0102 94.2328 64.7342 100.213 45.1662C100.291 44.8742 100.369 44.5821 100.448 44.29V44.3166Z" fill="#0A2342" fill-opacity="0.5"/>
<path fill-rule="evenodd" clip-rule="evenodd" d="M48.8317 29.7653C51.2341 30.137 49.0406 33.5089 48.2834 36.2171C43.5832 52.7583 38.7263 72.7246 34 87.4604C37.2901 69.1137 42.7215 49.8112 48.3095 30.5618C48.4139 30.137 48.4923 29.7122 48.8317 29.7653Z" fill="#0A2342" fill-opacity="0.5"/>
<path fill-rule="evenodd" clip-rule="evenodd" d="M51.4144 30.5105C51.8061 30.6168 52.1717 30.723 52.5634 30.8292C48.3332 48.3793 41.7007 70.8945 36.2955 88.0995C34.9637 86.7719 36.6088 83.6389 37.2355 81.4352C41.7007 65.3719 46.8187 48.0873 50.9183 31.2805C51.0228 30.8557 51.1011 30.4309 51.4406 30.484L51.4144 30.5105Z" fill="#0A2342" fill-opacity="0.5"/>
<path fill-rule="evenodd" clip-rule="evenodd" d="M53.9773 31.2549C54.1601 31.308 54.369 31.3611 54.5518 31.4142C55.7269 34.1224 53.5857 37.5474 52.6979 40.3087C47.841 55.31 44.2897 74.1612 38.5711 88.7642C37.0044 87.3039 39.0934 84.3567 39.694 82.4981C44.9164 66.6207 48.7549 48.1413 54.0296 32.2107C53.7162 32.078 53.9251 31.6 53.9773 31.2549Z" fill="#0A2342" fill-opacity="0.5"/>
<path fill-rule="evenodd" clip-rule="evenodd" d="M102.929 45.3538C105.383 45.5662 103.321 49.4692 102.642 51.8853C97.8632 69.0372 92.7713 88.207 87.4183 103.182C86.0082 101.164 87.9405 98.7477 88.5411 96.8891C93.7897 80.932 96.9753 62.7977 102.381 46.1503C102.485 45.7255 102.563 45.3272 102.903 45.3538H102.929Z" fill="#0A2342" fill-opacity="0.5"/>
<path fill-rule="evenodd" clip-rule="evenodd" d="M105.795 46.1764C106.265 46.3091 106.761 46.4419 107.231 46.6012C102.662 64.0452 95.298 84.5955 90.0233 103.925C88.9527 101.88 90.3106 99.2251 90.9373 97.2603C95.9508 82.0467 100.547 63.0893 105.273 46.9729C105.351 46.5481 105.456 46.1233 105.795 46.1764Z" fill="#0A2342" fill-opacity="0.5"/>
<path fill-rule="evenodd" clip-rule="evenodd" d="M108.389 46.9189C108.728 46.972 108.885 47.1313 108.885 47.3703C104.394 64.6815 97.9177 86.3205 92.3297 104.561C90.7891 104.003 92.1208 102.092 92.2775 101.401C96.3771 83.5592 104.028 66.3277 108.154 47.7951C108.232 47.5031 108.31 47.211 108.389 46.9189Z" fill="#0A2342" fill-opacity="0.5"/>
<path fill-rule="evenodd" clip-rule="evenodd" d="M110.653 47.582C106.318 66.619 99.4506 87.1429 94.5938 105.224C97.7011 88.0722 104.751 67.5483 109.843 48.2989C109.843 47.6086 110.496 48.0334 110.653 47.582Z" fill="#0A2342" fill-opacity="0.5"/>
<path fill-rule="evenodd" clip-rule="evenodd" d="M56.1932 32.1836C56.376 32.2367 56.5849 32.2898 56.7677 32.3429C55.9843 36.6972 54.2609 41.3437 52.877 46.3087C49.5868 58.1504 46.6884 70.7355 43.2155 83.1613C42.641 85.2589 42.6149 88.1529 40.5781 89.3212C46.0617 70.1779 50.9186 50.4241 56.1932 32.1836Z" fill="#0A2342" fill-opacity="0.5"/>
<path fill-rule="evenodd" clip-rule="evenodd" d="M72.7172 37.2814C73.0044 37.3611 73.2916 37.4407 73.5789 37.5204C67.8342 56.106 63.9696 76.3378 57.3893 94.4987C55.692 94.0473 57.3893 92.2949 57.546 91.7108C62.6117 74.3996 67.7297 55.9202 72.4822 38.1311C72.5605 37.839 72.6388 37.5469 72.7172 37.2549V37.2814Z" fill="#0A2342" fill-opacity="0.5"/>
<path fill-rule="evenodd" clip-rule="evenodd" d="M75.2808 38.0226C77.0303 38.6333 75.2547 40.4388 74.9674 41.3946C69.9539 58.4668 65.9326 78.1676 60.0312 94.9744C63.687 78.2738 69.5622 56.3693 74.4713 38.7395C74.5757 38.3147 74.628 37.8899 74.9935 37.943C75.098 37.9695 75.1763 37.9961 75.2808 38.0226Z" fill="#0A2342" fill-opacity="0.5"/>
<path fill-rule="evenodd" clip-rule="evenodd" d="M77.2893 38.5828C78.151 38.8218 79.0127 39.0873 79.8744 39.3262C73.8947 56.4781 70.2912 75.5682 64.2071 93.3043C63.9982 93.8884 64.1287 96.1186 62.6142 95.6673C60.8908 95.0832 62.6142 93.3308 62.9276 92.2953C67.7322 75.8072 72.3019 56.7437 76.7409 39.3528C76.8454 38.928 76.9237 38.5032 77.2632 38.5563L77.2893 38.5828Z" fill="#0A2342" fill-opacity="0.5"/>
<path fill-rule="evenodd" clip-rule="evenodd" d="M81.0224 39.6695C81.4924 39.8023 81.9886 39.9351 82.4586 40.0944C79.299 55.7063 73.3454 73.8406 68.6191 90.8332C68.0447 92.851 67.8096 96.5151 66.1385 96.4089C63.6317 95.9575 65.799 92.1076 66.3213 90.1694C70.7603 74.2388 76.0611 56.9011 80.4741 40.4661C80.5524 40.0413 80.6569 39.6164 80.9963 39.6695H81.0224Z" fill="#0A2342" fill-opacity="0.5"/>
<path fill-rule="evenodd" clip-rule="evenodd" d="M126.538 52.7863C126.825 52.866 127.112 52.9456 127.399 53.0253C122.02 70.0444 118.704 90.3824 112.803 107.64C112.594 108.278 112.724 110.481 111.21 110.004C109.303 109.207 111.392 105.915 111.889 104.215C116.719 87.8601 121.55 69.6727 126.303 53.6359C126.381 53.3439 126.459 53.0518 126.538 52.7598V52.7863Z" fill="#0A2342" fill-opacity="0.5"/>
<path fill-rule="evenodd" clip-rule="evenodd" d="M129.115 53.5306C130.447 54.8582 128.802 57.9381 128.201 60.1949C124.102 74.9307 120.629 88.4451 116.32 103.951C115.72 106.155 115.615 109.314 113.5 110.695C118.644 91.764 124.023 71.3994 128.828 53.4775C128.932 53.5041 129.011 53.5306 129.115 53.5572V53.5306Z" fill="#0A2342" fill-opacity="0.5"/>
<path fill-rule="evenodd" clip-rule="evenodd" d="M131.133 54.1158C131.994 54.3548 132.856 54.6203 133.718 54.8593C128.469 72.7811 122.672 93.5705 116.458 111.227C115.048 110.032 116.458 107.908 116.823 106.607C121.419 89.8003 126.563 72.0112 130.611 54.9124C130.715 54.4875 130.793 54.0627 131.133 54.1158Z" fill="#0A2342" fill-opacity="0.5"/>
<path fill-rule="evenodd" clip-rule="evenodd" d="M134.843 55.1766C135.13 55.2562 135.418 55.3359 135.705 55.4155C137.01 56.7962 135.365 59.9292 134.686 62.3719C130.456 77.559 126.539 94.1533 121.186 109.739C121.004 110.296 121.108 112.58 119.594 112.102C117.139 111.677 119.228 107.588 119.881 105.57C124.79 90.1972 130.587 72.1692 134.321 55.9466C134.425 55.5217 134.504 55.0969 134.843 55.15V55.1766Z" fill="#0A2342" fill-opacity="0.5"/>
<path fill-rule="evenodd" clip-rule="evenodd" d="M42.142 94.8163C37.5723 94.2321 32.0888 92.0284 27.1797 90.8071C28.9814 88.7627 33.1594 90.9133 36.2667 91.5239C39.0607 92.0815 41.8286 92.2939 42.1681 94.7897L42.142 94.8163Z" fill="#0A2342" fill-opacity="0.5"/>
<path fill-rule="evenodd" clip-rule="evenodd" d="M54.071 96.3818C54.9849 97.0191 56.7606 97.9749 58.6929 98.6652C62.0614 99.86 67.336 99.7272 66.866 102.595C62.1919 101.241 57.5178 99.8866 52.8438 98.559C53.0526 97.497 53.7577 97.3111 54.071 96.4084V96.3818Z" fill="#0A2342" fill-opacity="0.5"/>
<path fill-rule="evenodd" clip-rule="evenodd" d="M94.8103 110.004C90.7106 109.738 85.2793 107.004 81.1797 106.712C81.4147 104.455 84.6265 105.649 86.611 106.074C89.875 106.791 94.9147 107.243 94.7841 110.004H94.8103Z" fill="#0A2342" fill-opacity="0.5"/>
<path fill-rule="evenodd" clip-rule="evenodd" d="M120.301 117.359C116.254 116.881 110.979 114.97 107.141 113.562C107.428 113.377 107.637 113.005 107.741 112.474C108.002 112.474 108.107 112.261 108.394 112.341C111.371 114.784 118.943 114.624 120.301 117.333V117.359Z" fill="#0A2342" fill-opacity="0.5"/>
<path fill-rule="evenodd" clip-rule="evenodd" d="M124.84 122.111C123.247 123.917 120.427 122.164 118.782 121.633C87.3166 111.093 51.7779 104.03 21.2266 93.1973C52.6396 99.5164 87.4733 112.314 119.278 119.881C120.662 120.2 124.448 120.067 124.84 122.111Z" fill="#0A2342" fill-opacity="0.5"/>
<path fill-rule="evenodd" clip-rule="evenodd" d="M15.3438 96.542C16.6755 95.1613 18.895 96.6216 20.1745 96.9933C25.2664 98.4536 30.2799 99.4891 35.5024 100.79C64.1736 107.985 91.957 116.747 121.777 125.323C123.37 125.775 125.067 126.199 126.347 126.651C128.488 127.394 129.402 126.943 129.454 128.801C129.532 131.111 125.276 129.173 125.041 129.093C90.7819 119.615 53.3892 108.437 21.9763 99.3829C19.4173 98.6395 16.2055 98.4536 15.3438 96.5154V96.542Z" fill="#0A2342" fill-opacity="0.5"/>
<path fill-rule="evenodd" clip-rule="evenodd" d="M137.424 135.812C137.058 136.768 136.51 137.352 136.327 138.653C109.745 133.131 81.5177 121.289 55.3011 115.288C40.2343 111.837 24.4887 105.783 8.79523 101.269C7.38517 100.871 3.39 100.738 3.88613 98.9064C4.38226 97.0213 4.98285 97.8975 6.86292 98.1895C15.7933 99.6233 25.4809 103.712 34.7247 105.889C67.5477 113.695 104.261 126.732 137.424 135.812Z" fill="#0A2342" fill-opacity="0.5"/>
<path fill-rule="evenodd" clip-rule="evenodd" d="M151.005 48.1933C113.926 38.4226 74.235 25.6782 36.3984 15.4826C51.0474 11.1814 64.8085 8.81834 80.8153 5.95084C84.4971 5.28707 87.5523 5.15432 91.678 4.6764C95.1509 4.27814 100.243 2.71163 102.541 3.40196C104.395 3.95953 107.163 7.01288 109.382 8.84489C116.145 14.3409 122.49 20.0759 127.922 25.5189C136.173 33.7496 144.66 40.4139 150.979 48.1933H151.005ZM49.559 12.6682C47.2872 13.1196 44.1538 13.1727 42.6131 15.3764C50.8646 18.536 59.8733 20.0228 68.6731 22.8903C77.3424 25.7313 86.09 29.1829 94.7592 31.3601C103.663 33.5903 113.743 37.2544 123.378 39.6174C131.76 41.6618 139.803 44.3169 148.08 46.4144C146.827 44.2904 144.869 42.6177 143.119 40.8918C129.828 27.935 116.902 15.8278 101.992 4.19848C84.3144 6.05705 65.9836 9.45556 49.5068 12.6682H49.559Z" fill="#0A2342" fill-opacity="0.5"/>
</g>
</svg>
