<svg width="164" height="212" viewBox="0 0 164 212" fill="none" xmlns="http://www.w3.org/2000/svg">
<g opacity="0.1">
<path fill-rule="evenodd" clip-rule="evenodd" d="M128.512 65.7653C126.302 65.3169 123.368 66.7369 121.484 65.3917C117.97 61.7671 118.477 57.9183 116.775 54.3685C114.167 48.8756 107.501 43.1959 102.684 37.4414C97.3586 31.0891 93.1203 25.2225 87.9764 21.3364C85.5131 19.468 79.7896 18.9449 78.558 16.5161C77.3264 14.0499 79.4998 10.2385 78.4131 6.9502C77.1452 3.1388 75.5513 2.83987 72.5085 0C62.0034 2.76513 54.686 9.34167 46.9339 17.1513C42.0798 22.0463 34.4002 28.5481 33.0962 33.0321C31.6472 38.0393 35.8854 45.3258 40.6671 47.3062C43.1666 45.9236 46.5717 43.2332 48.8538 44.6158C50.4477 48.8756 47.9482 51.5286 48.5278 55.3774C51.5345 58.8525 54.3962 62.7386 57.2579 66.6248C53.0559 71.1461 48.0569 75.3686 49.0712 81.9825C29.2563 98.1622 11.5063 111.502 -4.8672 128.205C-22.6535 146.365 -35.5132 169.42 -56.5234 185.525C-56.1612 194.493 -48.9887 199.426 -42.2147 197.259C-40.8744 193.783 -39.353 190.421 -37.1433 188.365C-28.5218 180.369 -18.8137 173.493 -9.90241 165.908C16.5778 143.264 38.4574 117.406 59.2141 93.0803C64.7927 94.575 70.0452 86.9522 73.6677 85.5323C75.1529 89.1568 77.435 90.5768 79.3549 93.0803C82.8687 94.0519 87.0708 93.1551 90.5845 94.0519C87.4692 99.47 92.3958 109.148 98.2642 109.821C111.703 99.7316 125.867 89.9416 134.199 77.8348C135.032 73.4629 131.772 68.6799 128.548 65.728L128.512 65.7653Z" fill="#4FC3F7"/>
<path fill-rule="evenodd" clip-rule="evenodd" d="M151.405 99.9203C150.318 98.0894 148.978 96.2958 147.167 95.7726C145.573 95.2869 143.653 96.8936 142.095 96.5573C139.559 96.0342 139.378 92.7459 136.806 93.3812C126.337 97.9773 109.747 104.367 96.7057 111.056C91.743 113.597 82.9404 116.586 79.97 120.173C78.3037 122.191 79.1368 125.778 77.7965 127.721C74.2465 129.477 73.522 132.317 73.196 135.381C68.8128 138.184 65.5164 141.435 68.4143 147.189C77.869 145.209 88.0843 140.799 97.6838 136.428C119.672 126.451 143.399 116.511 163.975 105.376C161.439 99.1356 157.128 97.6036 151.369 99.9577L151.405 99.9203Z" fill="#4FC3F7"/>
<path fill-rule="evenodd" clip-rule="evenodd" d="M73.7766 7.54888C59.7215 17.3763 49.9047 28.9226 40.1965 40.4689C44.1449 31.7625 53.3098 25.1112 58.6348 16.9279C51.1363 22.3461 43.8189 30.903 37.697 38.0774C36.6827 35.0134 39.6893 34.0418 41.1745 32.4351C47.2965 25.8212 53.1286 18.1984 60.8807 11.846C63.9236 9.34248 68.343 7.54888 70.0817 4.63428C71.6032 4.82111 72.8348 5.75528 73.7766 7.51151V7.54888Z" fill="#0A2342"/>
<path fill-rule="evenodd" clip-rule="evenodd" d="M73.0479 13.9365C75.2576 13.376 73.5912 16.5148 74.678 17.7479C68.6647 25.7817 57.3626 31.6483 51.6754 39.7942C49.2483 39.9063 46.7851 40.1305 43.7422 41.8867C51.6029 31.7977 62.3616 22.8671 73.0479 13.9365Z" fill="#0A2342"/>
<path fill-rule="evenodd" clip-rule="evenodd" d="M81.6343 23.727C70.7669 32.4708 60.8776 41.663 52.7271 51.4904C52.6184 38.4495 69.7888 32.3213 78.2654 22.7181C79.8593 21.8587 80.2215 24.1754 81.6343 23.727Z" fill="#0A2342"/>
<path fill-rule="evenodd" clip-rule="evenodd" d="M86.0971 27.24C89.321 28.2489 90.9874 31.7987 93.0159 34.2276C99.1379 41.6262 106.564 48.8753 113.084 56.0123C105.26 63.7846 97.2542 71.4447 89.6108 79.2917C80.0838 70.5106 72.3317 57.0586 63.2031 47.2312C67.8399 40.6546 75.7368 35.3859 82.7644 29.7809C88.9588 38.3005 95.2619 46.708 101.674 54.6298C98.2685 44.0924 88.8501 36.8059 84.6118 28.4357C84.8292 27.95 85.3363 27.5763 86.0608 27.2774L86.0971 27.24Z" fill="#0A2342"/>
<path fill-rule="evenodd" clip-rule="evenodd" d="M61.1279 48.2031C61.5626 48.2031 62.0335 48.2405 62.3233 48.6889C68.4452 56.7227 75.1106 65.7281 81.8483 73.7619C83.8769 76.1908 86.6662 78.6196 87.1009 81.4968C84.855 81.4968 84.0218 77.6481 81.8845 77.2744C81.2325 79.9274 85.3983 81.4968 84.9999 83.4399C81.7396 84.5235 78.8779 80.4132 76.8131 78.0217C71.9228 72.4541 67.6483 66.2512 62.9753 60.4968C60.9105 57.9559 57.1432 55.2281 58.3748 51.9398C65.6197 58.3669 71.7779 67.6338 79.0228 73.9488C75.3279 64.1214 64.0258 57.1712 61.1641 48.1284L61.1279 48.2031Z" fill="#0A2342"/>
<path fill-rule="evenodd" clip-rule="evenodd" d="M56.3906 55.415C62.8748 62.2905 69.2503 71.5574 75.9519 79.4418C78.0167 81.908 81.2407 83.5521 81.458 86.5788C78.6687 85.2336 77.0749 82.2069 75.1549 79.8155C69.1779 72.4542 62.1503 64.7567 56.4269 55.415H56.3906Z" fill="#0A2342"/>
<path fill-rule="evenodd" clip-rule="evenodd" d="M60.8125 71.6311C64.761 73.4621 67.514 78.5439 70.7743 82.318C66.8258 80.4496 63.9278 75.7414 60.8125 71.6311Z" fill="#0A2342"/>
<path fill-rule="evenodd" clip-rule="evenodd" d="M68.4946 83.8499C67.8788 85.1204 66.3212 86.0172 64.9084 86.9887C61.6482 84.2236 59.0038 79.7022 55.9609 76.3766C56.939 75.704 57.591 74.9193 57.8808 73.9851C61.7931 76.2645 64.4013 81.9442 68.4584 83.8873L68.4946 83.8499Z" fill="#0A2342"/>
<path fill-rule="evenodd" clip-rule="evenodd" d="M51.314 85.0452C51.7849 84.9331 51.966 85.7552 52.5094 85.531C44.6124 97.4883 29.3257 106.456 19.5812 117.666C24.4716 116.657 27.5869 111.426 31.7165 108.1C40.0119 101.449 48.3073 94.5737 54.6104 88.1093C57.0737 90.725 53.5599 93.7143 52.2558 95.2463C39.5048 110.342 24.1455 124.504 9.87305 139.787C1.8312 148.419 -6.10198 157.238 -15.2668 164.86C-22.1857 170.615 -29.3219 175.585 -35.8061 182.273C-37.3276 183.805 -39.1388 187.28 -42.0368 186.085C-30.0464 168.522 -13.8178 153.015 1.36028 137.06C3.4613 134.855 5.23631 132.015 6.97509 129.474C-12.6949 144.795 -27.4745 166.99 -44.1016 183.506C-40.5153 176.594 -34.6832 171.138 -29.9378 164.935C-16.5709 147.56 -1.71881 127.27 17.6613 111.987C28.8185 103.168 41.1349 95.5826 51.3502 85.0826L51.314 85.0452Z" fill="#0A2342"/>
<path fill-rule="evenodd" clip-rule="evenodd" d="M113.369 62.4763C114.709 62.2895 114.093 62.8874 114.492 63.971C111.92 69.0529 106.667 73.3874 101.741 77.834C97.3212 81.8323 92.7569 88.4462 86.5625 88.2593C94.6406 79.2913 106.486 71.8927 113.369 62.439V62.4763Z" fill="#0A2342"/>
<path fill-rule="evenodd" clip-rule="evenodd" d="M121.593 71.4064C112.646 79.515 104.749 88.072 95.8375 96.2553C94.7145 95.6574 95.7288 92.9296 94.0625 90.9866C101.923 83.4759 108.299 75.3673 116.703 68.0808C118.188 69.5381 119.565 71.4064 121.557 71.4438L121.593 71.4064Z" fill="#0A2342"/>
<path fill-rule="evenodd" clip-rule="evenodd" d="M128.552 72.8284C130.871 76.4156 127.14 80.3764 124.857 82.6184C121.054 86.3551 115.656 90.3533 111.201 94.3889C106.854 98.3498 102.072 104.852 96.7109 102.983C108.919 93.6042 117.359 82.6558 128.552 72.8657V72.8284Z" fill="#0A2342"/>
<path fill-rule="evenodd" clip-rule="evenodd" d="M80.4087 99.1706C83.0531 98.3485 85.8424 101.338 85.9873 104.215C83.3067 105.037 79.8654 101.151 80.4087 99.1706Z" fill="#4FC3F7"/>
<path fill-rule="evenodd" clip-rule="evenodd" d="M145.243 72.8284C144.772 76.9761 141.005 79.8159 139.483 83.5152C136.223 80.7127 140.643 73.6131 145.243 72.8284Z" fill="#4FC3F7"/>
<path fill-rule="evenodd" clip-rule="evenodd" d="M72.0078 107.057C75.4854 107.356 80.4844 107.804 81.6435 111.279C78.2384 110.868 72.841 111.204 72.0078 107.057Z" fill="#4FC3F7"/>
<path fill-rule="evenodd" clip-rule="evenodd" d="M149.66 77.4232C148.645 79.852 145.856 84.4481 142.523 83.7008C142.632 80.3378 145.747 77.3858 149.66 77.4232Z" fill="#4FC3F7"/>
<path fill-rule="evenodd" clip-rule="evenodd" d="M79.2462 114.903C77.4712 116.958 74.7906 115.875 72.5446 116.435C70.1176 111.877 78.2319 112.213 79.2462 114.903Z" fill="#4FC3F7"/>
<path fill-rule="evenodd" clip-rule="evenodd" d="M158.109 82.2048C156.841 84.1852 150.9 87.3988 148.872 85.8667C148.654 83.0269 156.189 80.0002 158.109 82.2048Z" fill="#4FC3F7"/>
<path fill-rule="evenodd" clip-rule="evenodd" d="M137.165 98.7612C119.27 106.571 100.324 115.838 84.8928 123.461C83.6612 120.06 88.0806 119.537 90.1454 118.528C102.063 112.886 114.235 106.646 126.587 101.526C130.137 100.032 133.977 97.7897 137.165 98.7612Z" fill="#0A2342"/>
<path fill-rule="evenodd" clip-rule="evenodd" d="M146.692 101.563C125.791 111.727 102.208 121.293 80.0391 131.756C80.9085 127.757 86.0523 127.01 89.6023 125.403C105.034 118.416 125.863 108.364 139.665 101.19C142.382 99.7698 144.048 98.4993 146.692 101.563Z" fill="#0A2342"/>
<path fill-rule="evenodd" clip-rule="evenodd" d="M156.807 104.551C134.13 115.425 108.157 125.402 85.6253 136.799C82.4013 138.406 76.8589 143.076 73.5625 140.76C74.3957 137.135 81.3508 135.155 84.1763 133.436C99.3182 124.206 123.118 116.285 139.89 108.699C145.505 106.158 151.554 101.824 156.77 104.589L156.807 104.551Z" fill="#0A2342"/>
<path fill-rule="evenodd" clip-rule="evenodd" d="M60.3672 34.8619C65.1126 30.1537 69.2784 25.8939 74.4223 22.9419C76.7407 21.5967 72.9009 24.5487 72.7198 24.7355C68.9162 28.1732 64.5692 31.5736 60.3672 34.8992V34.8619Z" fill="#0A2342"/>
<path fill-rule="evenodd" clip-rule="evenodd" d="M53.7734 80.3745C55.9469 81.2713 61.5617 85.5685 62.8296 88.9315C59.0985 87.9226 57.0336 82.5791 53.7734 80.3745Z" fill="#0A2342"/>
<path fill-rule="evenodd" clip-rule="evenodd" d="M94.4219 100.927C94.7479 98.6105 97.7183 97.0785 99.928 95.397C106.847 90.1283 113.186 83.8133 119.236 78.5446C119.634 77.162 120.069 78.2083 119.417 78.9556C113.259 84.4485 107.1 90.8756 100.653 97.0785C99.0586 98.6105 97.0663 102.683 94.4219 100.927Z" fill="#0A2342"/>
</g>
</svg>
