<svg width="164" height="196" viewBox="0 0 164 196" fill="none" xmlns="http://www.w3.org/2000/svg">
<g opacity="0.1">
<path fill-rule="evenodd" clip-rule="evenodd" d="M180.882 179.477C181.455 177.144 182.71 174.409 181.886 172.842C179.985 171.456 176.436 171.019 173.747 170.071C174.07 168.321 175.289 166.061 174.787 164.748C173.568 163.436 169.875 163.472 168.727 162.124C167.114 157.421 168.835 153.155 170.771 147.177C175.647 132.266 182.352 110.393 186.654 94.7529C188.232 89.0293 188.59 81.9203 190.526 77.7279C192.14 74.3375 195.761 71.7491 197.231 68.8691C202.143 70.8742 207.844 72.5876 212.684 72.8792C213.509 71.1658 215.983 69.8898 215.696 68.14C205.657 56.3647 193.323 45.1362 180.882 33.0692C169.086 21.622 156.86 9.00825 141.622 0.14943C141.156 -0.142218 140.439 0.076524 139.937 0.11298C111.075 0.404628 82.3559 9.77383 54.892 15.7526C51.0915 16.5911 44.351 16.8463 43.2754 19.3253C40.4071 25.9239 53.0634 27.7102 59.2303 29.0955C58.6925 32.5224 61.2022 36.8242 60.772 40.324C60.27 44.4071 57.9395 49.6567 56.5771 53.8127C50.0876 73.7542 44.5661 98.0339 38.7578 117.757C36.7859 119.178 35.3876 121.694 33.7025 123.662C31.4078 123.48 29.6868 121.657 28.181 122.058C26.7827 122.933 27.1412 126.98 25.7071 127.819C23.1615 127.162 20.7234 126.761 18.3929 126.579C16.9588 127.964 16.8871 131.865 15.0227 132.521C11.3656 131.683 7.09903 129.787 3.90805 129.751C3.54951 132.448 1.32659 136.459 0 140.724C60.4852 158.514 127.711 178.128 189.092 195.226C190.813 192.309 191.387 187.388 193 184.252C190.383 181.81 183.105 180.971 180.738 179.44L180.882 179.477ZM80.3481 107.33C77.4798 119.47 75.723 128.584 69.0183 134.308C66.652 133.651 64.1422 133.032 62.4571 131.974C62.0986 129.24 60.8078 127.053 59.8039 124.72C63.6761 111.96 67.6559 98.4714 71.4205 84.9826C72.03 83.3057 72.4961 81.4829 72.8547 79.733C76.0457 68.067 78.9857 56.474 81.4954 45.4643C84.3637 43.4592 85.9771 39.1939 88.8813 37.2252C91.2118 37.2252 94.1518 38.3554 96.8408 39.0845C97.9164 51.9899 90.9966 69.3065 85.8337 87.7533C83.9693 94.3518 81.8898 100.95 80.3839 107.33H80.3481ZM153.561 129.714C152.055 136.203 151.231 144.114 148.721 148.598C147.574 150.64 143.953 151.952 143.558 154.905C140.295 153.994 136.889 152.791 134.021 152.572C132.013 148.854 133.842 144.807 135.276 140.432C142.518 118.231 149.151 89.6855 154.78 67.4473C157.505 65.1506 159.943 62.4164 162.166 59.2082C162.31 58.6249 162.417 58.0416 162.883 58.1145C165.752 58.6249 167.114 59.9738 169.839 60.5571C171.165 78.3476 159.119 105.507 153.525 129.714H153.561ZM117.779 119.397C114.768 130.225 113.19 140.396 107.167 145.281C103.653 144.297 100.57 144.114 96.8408 142.729C94.0083 137.516 94.6537 133.98 97.271 125.996C102.004 111.486 108.457 90.2688 113.047 73.9729C114.552 68.6503 115.377 61.1404 117.349 57.0573C119.034 53.4846 122.799 51.5889 124.627 49.2193C126.707 49.5109 129.79 50.8962 132.874 51.5889C132.121 55.3803 133.663 57.8593 134.595 60.7029C128.105 78.3112 123.229 99.8932 117.815 119.361L117.779 119.397Z" fill="#4FC3F7"/>
<path fill-rule="evenodd" clip-rule="evenodd" d="M139.718 8.67944C161.015 23.9545 176.898 42.2919 195.793 58.9523C152.948 47.6145 109.063 33.7977 67.8672 21.2203C90.1682 14.002 115.086 11.5959 139.754 8.67944H139.718ZM74.6794 21.038C80.1291 25.2305 87.8377 25.6315 94.5065 27.6001C109.637 32.0842 124.839 38.1724 140.973 42.2919C157.394 46.4479 173.313 52.7548 189.555 55.4161C174.388 39.4483 159.079 23.59 138.786 10.5387C116.485 12.3251 94.9009 15.4238 74.7152 21.0016L74.6794 21.038Z" fill="#0A2342"/>
<path fill-rule="evenodd" clip-rule="evenodd" d="M184.467 52.2464C150.585 43.6792 113.011 31.357 80.1328 21.2952C98.2748 17.8683 118.389 13.8217 136.925 12.6186C141.156 12.327 146.713 19.1807 150.8 22.243C163.313 31.6122 173.066 42.7313 184.467 52.2464ZM150.478 29.4978C146.677 25.9615 141.837 19.2536 136.638 18.16C132.658 17.3215 125.954 19.8369 121.472 20.7119C116.381 21.6962 110.859 21.7327 106.88 24.2846C114.266 28.5135 124.269 30.555 133.555 33.6902C140.618 36.0599 147.143 38.2108 152.987 40.143C155.856 41.0908 159.585 43.0594 162.345 41.5647C159.656 36.8984 154.924 33.6902 150.406 29.4978H150.478Z" fill="#0A2342"/>
<path fill-rule="evenodd" clip-rule="evenodd" d="M154.817 36.7889C141.48 34.4922 129.397 28.5863 116.023 25.1594C122.405 22.4981 130.365 22.7533 136.603 19.8733C142.591 25.5604 148.041 31.5757 154.817 36.7889Z" fill="#0A2342"/>
<path fill-rule="evenodd" clip-rule="evenodd" d="M120.357 47.5788C119.103 49.7297 117.274 47.5788 115.41 47.032C110.283 45.5373 103.901 43.8967 99.3831 42.001C99.3831 41.6365 99.0963 41.4906 99.2038 41.0896C99.2755 40.6157 99.4907 40.397 99.8133 40.397C105.299 43.5686 114.119 44.8446 120.322 47.6153L120.357 47.5788Z" fill="#0A2342"/>
<path fill-rule="evenodd" clip-rule="evenodd" d="M159.008 58.2968C155.997 59.2082 150.655 56.9115 145.707 55.7449C142.193 54.9064 137.675 55.3074 135.883 52.9013C140.58 52.2816 154.455 56.5105 159.008 58.2604V58.2968Z" fill="#0A2342"/>
<path fill-rule="evenodd" clip-rule="evenodd" d="M62.8133 30.1545C69.7689 32.1596 76.6887 34.1647 83.6443 36.1698C81.1346 37.9197 77.4775 35.55 74.2506 34.748C70.5219 33.8366 66.5421 33.2898 63.136 31.9773C63.3511 31.1753 62.2038 31.1753 62.8133 30.1545Z" fill="#0A2342"/>
<path fill-rule="evenodd" clip-rule="evenodd" d="M99.1641 44.5168C99.1641 44.1522 99.415 44.1887 99.666 44.2251C102.929 45.3552 106.908 47.3968 110.745 48.7092C112.968 49.4383 116.589 49.2925 117.091 51.8444C113.147 53.011 105.331 48.4176 99.666 47.251C99.2716 46.4854 99.666 45.2459 99.1641 44.5168Z" fill="#0A2342"/>
<path fill-rule="evenodd" clip-rule="evenodd" d="M63.7817 34.3091C68.6937 37.1162 75.9361 37.1526 80.5613 39.5952C77.0834 42.3294 69.3032 37.1526 63.9969 36.5329C64.6422 35.4028 63.1364 35.4392 63.7817 34.3091Z" fill="#0A2342"/>
<path fill-rule="evenodd" clip-rule="evenodd" d="M155.426 62.0142C150.657 62.0507 140.977 59.28 136.961 56.6917C142.554 58.1863 151.123 58.8426 155.426 62.0142Z" fill="#0A2342"/>
<path fill-rule="evenodd" clip-rule="evenodd" d="M63.9987 39.5589C66.4726 40.7984 63.7477 45.4648 62.7079 48.6729C55.7882 70.9476 49.4421 99.0552 43.3828 119.543C47.2909 94.3523 56.8996 65.9166 63.2099 39.3037C63.4609 39.3766 63.7477 39.4495 63.9987 39.5224V39.5589Z" fill="#0A2342"/>
<path fill-rule="evenodd" clip-rule="evenodd" d="M137.928 60.848C138.322 60.9574 138.716 61.0667 139.111 61.1761C133.302 86.586 125.199 116.042 116.953 140.723C121.005 115.35 129.394 88.8827 137.605 62.0146C137.712 61.6136 137.82 61.2125 137.928 60.8115V60.848Z" fill="#0A2342"/>
<path fill-rule="evenodd" clip-rule="evenodd" d="M67.0446 40.87C70.3431 41.3803 67.3314 46.0103 66.2916 49.7288C59.838 72.4409 53.1692 99.8558 46.6797 120.089C51.1973 94.8978 58.6548 68.3943 66.3275 41.9636C66.4709 41.3803 66.5785 40.7971 67.0446 40.87Z" fill="#0A2342"/>
<path fill-rule="evenodd" clip-rule="evenodd" d="M70.5952 41.8923C71.133 42.0381 71.635 42.1839 72.1728 42.3297C66.3645 66.4272 57.2577 97.3419 49.8359 120.965C48.0074 119.143 50.2662 114.841 51.1267 111.815C57.2577 89.759 64.285 66.0262 69.914 42.9495C70.0574 42.3662 70.165 41.7829 70.6311 41.8558L70.5952 41.8923Z" fill="#0A2342"/>
<path fill-rule="evenodd" clip-rule="evenodd" d="M74.1098 42.9141C74.3607 42.987 74.6476 43.0599 74.8985 43.1328C76.512 46.8513 73.572 51.5541 72.3529 55.3456C65.6841 75.9432 60.808 101.827 52.9561 121.878C50.8049 119.873 53.6732 115.826 54.4978 113.274C61.6685 91.4735 66.939 66.1001 74.1815 44.2265C73.7512 44.0442 74.0381 43.388 74.1098 42.9141Z" fill="#0A2342"/>
<path fill-rule="evenodd" clip-rule="evenodd" d="M141.333 62.2727C144.703 62.5644 141.871 67.9234 140.939 71.2409C134.378 94.7915 127.386 121.113 120.036 141.674C118.1 138.903 120.753 135.586 121.578 133.034C128.784 111.124 133.159 86.2243 140.58 63.3664C140.724 62.7831 140.831 62.2363 141.297 62.2727H141.333Z" fill="#0A2342"/>
<path fill-rule="evenodd" clip-rule="evenodd" d="M145.273 63.4024C145.918 63.5847 146.599 63.767 147.245 63.9857C140.97 87.9373 130.86 116.154 123.617 142.694C122.147 139.887 124.012 136.242 124.872 133.544C131.756 112.655 138.066 86.6249 144.556 64.4961C144.663 63.9128 144.807 63.3295 145.273 63.4024Z" fill="#0A2342"/>
<path fill-rule="evenodd" clip-rule="evenodd" d="M148.826 64.4209C149.292 64.4938 149.507 64.7125 149.507 65.0406C143.341 88.81 134.449 118.522 126.776 143.567C124.661 142.801 126.489 140.177 126.704 139.229C132.333 114.73 142.839 91.0703 148.503 65.6239C148.611 65.2229 148.719 64.8219 148.826 64.4209Z" fill="#0A2342"/>
<path fill-rule="evenodd" clip-rule="evenodd" d="M151.941 65.3325C145.989 91.4715 136.559 119.652 129.891 144.479C134.157 120.928 143.838 92.7475 150.829 66.3168C150.829 65.369 151.726 65.9523 151.941 65.3325Z" fill="#0A2342"/>
<path fill-rule="evenodd" clip-rule="evenodd" d="M77.1592 44.1892C77.4102 44.2621 77.6971 44.335 77.948 44.4079C76.8724 50.3867 74.5061 56.7665 72.6058 63.5838C68.0883 79.8432 64.1085 97.1234 59.34 114.185C58.5512 117.065 58.5153 121.039 55.7188 122.643C63.248 96.3578 69.9168 69.2345 77.1592 44.1892Z" fill="#0A2342"/>
<path fill-rule="evenodd" clip-rule="evenodd" d="M99.8475 51.1893C100.242 51.2987 100.636 51.408 101.031 51.5174C93.1429 77.0366 87.8365 104.816 78.8014 129.752C76.4709 129.132 78.8014 126.726 79.0165 125.924C85.9722 102.155 92.9995 76.7814 99.5248 52.3559C99.6324 51.9549 99.74 51.5538 99.8475 51.1528V51.1893Z" fill="#0A2342"/>
<path fill-rule="evenodd" clip-rule="evenodd" d="M103.36 52.2079C105.763 53.0463 103.325 55.5253 102.93 56.8378C96.0463 80.279 90.5248 107.329 82.4219 130.406C87.4414 107.475 95.5085 77.399 102.249 53.1922C102.392 52.6089 102.464 52.0256 102.966 52.0985C103.109 52.1349 103.217 52.1714 103.36 52.2079Z" fill="#0A2342"/>
<path fill-rule="evenodd" clip-rule="evenodd" d="M106.124 52.9748C107.307 53.3029 108.49 53.6674 109.673 53.9956C101.463 77.5462 96.5149 103.758 88.161 128.111C87.8742 128.913 88.0535 131.975 85.974 131.355C83.6076 130.553 85.9739 128.147 86.4042 126.725C93.0013 104.086 99.2757 77.9107 105.371 54.032C105.514 53.4487 105.622 52.8654 106.088 52.9383L106.124 52.9748Z" fill="#0A2342"/>
<path fill-rule="evenodd" clip-rule="evenodd" d="M111.252 54.4696C111.897 54.6519 112.578 54.8341 113.224 55.0529C108.885 76.489 100.711 101.388 94.2211 124.72C93.4324 127.491 93.1097 132.522 90.815 132.376C87.3731 131.756 90.349 126.47 91.066 123.809C97.1611 101.935 104.439 78.1295 110.499 55.5633C110.606 54.98 110.75 54.3967 111.216 54.4696H111.252Z" fill="#0A2342"/>
<path fill-rule="evenodd" clip-rule="evenodd" d="M173.745 72.4786C174.139 72.588 174.534 72.6973 174.928 72.8067C167.542 96.175 162.989 124.1 154.886 147.797C154.599 148.672 154.778 151.698 152.699 151.041C150.082 149.948 152.95 145.427 153.631 143.094C160.264 120.637 166.897 95.6646 173.422 73.6452C173.53 73.2442 173.637 72.8432 173.745 72.4421V72.4786Z" fill="#0A2342"/>
<path fill-rule="evenodd" clip-rule="evenodd" d="M177.292 73.5009C179.121 75.3237 176.862 79.5526 176.037 82.6514C170.408 102.884 165.64 121.441 159.724 142.731C158.899 145.757 158.756 150.095 155.852 151.991C162.915 125.998 170.301 98.0358 176.898 73.428C177.041 73.4644 177.149 73.5009 177.292 73.5373V73.5009Z" fill="#0A2342"/>
<path fill-rule="evenodd" clip-rule="evenodd" d="M180.055 74.3031C181.238 74.6312 182.422 74.9957 183.605 75.3238C176.398 99.9317 168.439 128.477 159.905 152.72C157.969 151.079 159.906 148.163 160.407 146.377C166.718 123.3 173.781 98.8744 179.338 75.3967C179.482 74.8135 179.589 74.2302 180.055 74.3031Z" fill="#0A2342"/>
<path fill-rule="evenodd" clip-rule="evenodd" d="M185.146 75.7604C185.54 75.8698 185.935 75.9792 186.329 76.0885C188.122 77.9842 185.863 82.2861 184.931 85.64C179.123 106.493 173.745 129.278 166.395 150.678C166.144 151.443 166.287 154.578 164.208 153.922C160.837 153.339 163.706 147.725 164.602 144.954C171.342 123.846 179.302 99.0923 184.429 76.8177C184.572 76.2344 184.68 75.6511 185.146 75.724V75.7604Z" fill="#0A2342"/>
<path fill-rule="evenodd" clip-rule="evenodd" d="M57.8645 130.188C51.5901 129.386 44.0608 126.36 37.3203 124.683C39.7942 121.876 45.5308 124.829 49.7974 125.667C53.6337 126.433 57.4342 126.725 57.9003 130.152L57.8645 130.188Z" fill="#0A2342"/>
<path fill-rule="evenodd" clip-rule="evenodd" d="M74.2476 132.338C75.5025 133.213 77.9406 134.525 80.5937 135.473C85.2188 137.114 92.4613 136.931 91.8159 140.869C85.3981 139.009 78.9803 137.15 72.5625 135.327C72.8493 133.869 73.8174 133.614 74.2476 132.374V132.338Z" fill="#0A2342"/>
<path fill-rule="evenodd" clip-rule="evenodd" d="M130.184 151.041C124.555 150.677 117.098 146.922 111.469 146.521C111.791 143.422 116.201 145.063 118.926 145.646C123.408 146.63 130.328 147.25 130.149 151.041H130.184Z" fill="#0A2342"/>
<path fill-rule="evenodd" clip-rule="evenodd" d="M165.18 161.141C159.622 160.485 152.38 157.86 147.109 155.928C147.504 155.672 147.791 155.162 147.934 154.433C148.293 154.433 148.436 154.141 148.83 154.251C152.918 157.605 163.315 157.386 165.18 161.104V161.141Z" fill="#0A2342"/>
<path fill-rule="evenodd" clip-rule="evenodd" d="M171.416 167.667C169.229 170.146 165.357 167.74 163.098 167.011C119.894 152.537 71.0972 142.84 29.1484 127.966C72.2804 136.643 120.109 154.214 163.779 164.604C165.679 165.042 170.878 164.86 171.416 167.667Z" fill="#0A2342"/>
<path fill-rule="evenodd" clip-rule="evenodd" d="M21.0781 132.557C22.9067 130.662 25.9542 132.667 27.7111 133.177C34.7025 135.182 41.5864 136.604 48.7572 138.39C88.1245 148.27 126.273 160.3 167.218 172.076C169.405 172.695 171.735 173.279 173.492 173.898C176.432 174.919 177.687 174.299 177.759 176.851C177.866 180.023 172.022 177.362 171.699 177.252C124.659 164.238 73.3169 148.89 30.185 136.458C26.6713 135.437 22.2613 135.182 21.0781 132.521V132.557Z" fill="#0A2342"/>
<path fill-rule="evenodd" clip-rule="evenodd" d="M188.695 186.478C188.193 187.791 187.44 188.593 187.189 190.379C150.69 182.796 111.932 166.537 75.9353 158.298C55.2478 153.559 33.628 145.247 12.0799 139.049C10.1438 138.502 4.65822 138.32 5.33944 135.805C6.02066 133.216 6.8453 134.419 9.42676 134.82C21.6887 136.789 34.9904 142.403 47.6826 145.393C92.7507 156.111 143.161 174.011 188.695 186.478Z" fill="#0A2342"/>
<path fill-rule="evenodd" clip-rule="evenodd" d="M207.338 66.1721C156.426 52.7563 101.929 35.2574 49.9766 21.2583C70.0905 15.3524 88.9854 12.1078 110.964 8.17054C116.019 7.25914 120.214 7.07686 125.879 6.42065C130.647 5.87381 137.639 3.72291 140.794 4.67077C143.34 5.43634 147.14 9.62878 150.188 12.1443C159.474 19.6907 168.186 27.5652 175.644 35.0386C186.973 46.34 198.626 55.4905 207.302 66.1721H207.338ZM68.0468 17.3939C64.9275 18.0137 60.6251 18.0866 58.5097 21.1124C69.8395 25.4507 82.209 27.4922 94.2917 31.4295C106.195 35.3303 118.206 40.0696 130.11 43.059C142.336 46.1213 156.175 51.1522 169.405 54.3968C180.914 57.2039 191.957 60.8495 203.323 63.7296C201.602 60.8131 198.913 58.5163 196.511 56.1467C178.261 38.3561 160.513 21.7322 140.041 5.76444C115.768 8.31637 90.5988 12.9827 67.9751 17.3939H68.0468Z" fill="#0A2342"/>
</g>
</svg>
